<svg height="512pt" viewBox="0 0 512.00039 512" width="512pt" xmlns="http://www.w3.org/2000/svg"><path d="m488.398438 451.636719c-13.171876-23.136719-30.621094-43.007813-51.859376-59.066407l-83.613281-63.199218.566407-85.457032c9.117187-12.382812 16.308593-24.914062 21.40625-42.640624.09375-.203126.183593-.410157.273437-.621094 0-.003906.003906-.007813.003906-.011719l57.894531-21.089844c17.097657-6.226562 30.335938-19.519531 37.28125-37.421875 4.984376-12.851562 6.257813-26.988281 3.816407-40.914062 14.933593-6.804688 26.484375-19.285156 32.8125-35.597656 6.675781-17.207032 6.695312-36.722657.050781-54.953126-1.359375-3.734374-4.152344-6.777343-7.757812-8.457031-3.605469-1.683593-7.730469-1.859375-11.464844-.5l-105.296875 38.359375c-4.316407-4.128906-9.171875-7.664062-14.542969-10.542968-12.898438-6.921876-27.292969-9.367188-41.457031-7.1875-5.175781-5.808594-11.351563-10.695313-18.25-14.398438-22.4375-12.039062-49.289063-10.109375-69.523438 3.941406-11.066406-7.648437-24.320312-11.87499975-37.945312-11.87499975-14.632813 0-28.476563 4.65234375-39.925781 13.27343775-7.304688-2.671875-15.0625-4.054688-22.886719-4.054688-36.753907 0-66.65625 29.898438-66.65625 66.65625 0 12.183594 3.382812 24.164063 9.648437 34.519532-4.4375 12.953124-6.773437 27.003906-6.949218 41.898437l-22.074219 90.804687c-1.820313 7.5-.132813 15.28125 4.636719 21.347657 4.769531 6.070312 11.933593 9.550781 19.648437 9.550781h11.867187l4.128907 46.523438c.007812.085937.015625.171874.023437.257812 1.695313 15.953125 10.242188 30.332031 23.449219 39.441406 9.277344 6.402344 20.171875 9.734375 31.210937 9.734375 4.671876 0 9.371094-.597656 13.984376-1.808593l31.476562-8.269532v20.351563l-83.285156 26.699219c-1.757813.5625-3.503906 1.160156-5.242188 1.769531-1.976562.300781-3.894531.992187-5.644531 2.078125-32.773437 12.667968-61.34375 33.816406-83.128906 61.65625l-11.886719 15.191406c-5.105469 6.519531-3.953125 15.945312 2.566406 21.050781 2.746094 2.144531 6 3.1875 9.230469 3.1875 4.457031 0 8.863281-1.976562 11.820313-5.757812l11.886718-15.1875c17.027344-21.757813 38.957032-38.664063 64.050782-49.566407l65.992187 65.988282c2.925781 2.929687 6.765625 4.394531 10.601563 4.394531 3.839843 0 7.675781-1.464844 10.601562-4.394531 5.859375-5.855469 5.859375-15.351563 0-21.207032l-55.75-55.753906 36.011719-11.542968 88.507812 88.503906c2.929688 2.929687 6.765625 4.394531 10.601563 4.394531 3.839844 0 7.675781-1.464844 10.605468-4.394531 5.855469-5.855469 5.855469-15.351563 0-21.207032l-77.597656-77.59375 9.632813-3.089843c6.207031-1.988281 10.417969-7.761719 10.417969-14.277344v-39.171875l.972656-.257812c8.011718-2.101563 12.800781-10.300782 10.695312-18.3125-2.105468-8.007813-10.300781-12.796876-18.3125-10.691407l-62.445312 16.402344c-7.054688 1.851563-14.542969.539063-20.542969-3.601563-5.96875-4.121093-9.847656-10.605468-10.644531-17.8125l-5.332032-60.050781c-.6875-7.738281-7.167968-13.667969-14.9375-13.667969h-19.226562l20.988281-86.328124c.28125-1.160157.421875-2.347657.421875-3.539063 0-14.632813 2.558594-28.066406 7.601563-39.929687 2.171875-5.101563 1.347656-10.988282-2.140625-15.300782-5.332032-6.589844-8.148438-14.554687-8.148438-23.035156 0-20.214844 16.449219-36.664062 36.664063-36.664062 6.339843 0 12.59375 1.652343 18.082031 4.777343 5.976562 3.398438 13.496094 2.296875 18.25-2.667969 6.992188-7.304687 16.398438-11.328124 26.480469-11.328124 10.347656 0 19.914062 4.195312 26.945312 11.8125.066407.074218.144531.136718.214844.207031.070313.074219.128906.152343.203125.226562l65.03125 65.03125c-2.625 10.25-3.109375 21.195313-1.085938 32.21875l12.539063 68.226563c.800781 4.339844 3.46875 8.109375 7.300781 10.300781 2.296875 1.316406 4.867188 1.980469 7.449219 1.980469 1.734375 0 3.46875-.296875 5.132813-.902344l12.515624-4.558594c-2.964843 5.125-6.394531 9.972656-10.398437 15.183594-1.992187 2.59375-3.082031 5.765625-3.105469 9.039062l-.648437 97.933594c-.03125 4.734375 2.175781 9.207032 5.953125 12.0625l89.613281 67.742188c17.972656 13.582031 32.734375 30.398437 43.878906 49.976562l21.519531 37.800782c2.765626 4.855468 7.832032 7.578124 13.046876 7.578124 2.511718 0 5.0625-.632812 7.40625-1.96875 7.195312-4.097656 9.710937-13.253906 5.609374-20.449218zm-226.804688-418.371094c10.160156-4.601563 22.167969-4.4375 32.484375 1.097656 5.585937 3 10.316406 7.410157 13.675781 12.761719 3.660156 5.820312 10.808594 8.410156 17.339844 6.28125 7.179688-2.335938 14.679688-2.425781 21.714844-.335938l-6.621094 2.414063c-13.332031 4.855469-24.519531 13.121094-32.863281 23.507813zm60.007812 100.800781c-1.578124-8.578125-.621093-17.074218 2.386719-24.6875.152344-.34375.292969-.6875.421875-1.039062 4.726563-11.144532 13.910156-20.257813 26.039063-24.675782l32.046875-11.671874c.480468-.148438.960937-.324219 1.429687-.523438l98.011719-35.699219c.363281 6.578125-.605469 13.050781-2.917969 19.003907-3.773437 9.726562-10.726562 16.859374-19.65625 20.117187l-64.648437 23.9375c-7.769532 2.875-11.730469 11.503906-8.855469 19.269531s11.503906 11.730469 19.269531 8.855469l40.167969-14.875c.394531 6.648437-.574219 13.191406-2.90625 19.203125-3.773437 9.730469-10.726563 16.863281-19.585937 20.089844l-63.585938 23.164062c-.273438.089844-.535156.191406-.804688.292969l-27.480468 10.011719zm0 0"/><path d="m151.671875 175.703125h-10.367187c-8.28125 0-14.996094 6.714844-14.996094 14.996094s6.714844 14.996093 14.996094 14.996093h10.367187c8.28125 0 14.996094-6.714843 14.996094-14.996093s-6.714844-14.996094-14.996094-14.996094zm0 0"/></svg>